<svg width="43" height="40" viewBox="0 0 43 40" fill="none" xmlns="http://www.w3.org/2000/svg">
<path d="M21.542 17.5415H15.667M21.542 11.6665V17.5415V11.6665ZM21.542 17.5415V23.4165V17.5415ZM21.542 17.5415H27.417H21.542Z" stroke="#386FA4" stroke-width="2" stroke-linecap="round"/>
<path d="M25.4585 33.2083C32.8434 33.2083 36.5368 33.2083 38.83 30.9132C41.1252 28.62 41.1252 24.9265 41.1252 17.5417C41.1252 10.1568 41.1252 6.46338 38.83 4.17017C36.5368 1.875 32.8434 1.875 25.4585 1.875H17.6252C10.2403 1.875 6.54687 1.875 4.25366 4.17017C1.9585 6.46338 1.9585 10.1568 1.9585 17.5417C1.9585 24.9265 1.9585 28.62 4.25366 30.9132C5.53245 32.1939 7.246 32.7599 9.79183 33.0086" stroke="#386FA4" stroke-width="2" stroke-linecap="round" stroke-linejoin="round"/>
<path d="M25.4588 33.2085C23.0383 33.2085 20.371 34.1877 17.9368 35.4508C14.0241 37.4816 12.0677 38.498 11.1042 37.8497C10.1407 37.2035 10.3228 35.1962 10.689 31.1836L10.7713 30.271" stroke="#386FA4" stroke-width="2" stroke-linecap="round"/>
</svg>
