<svg width="21" height="22" viewBox="0 0 21 22" fill="none" xmlns="http://www.w3.org/2000/svg">
<path d="M0 0.135254V20.1755H12.5V18.6339H1.5625V1.67681H9.375V6.30148H14.0625V7.84304H15.625V5.22239L15.3906 4.99116L10.7031 0.366487L10.4688 0.135254H0ZM10.9375 2.7559L12.9688 4.75992H10.9375V2.7559ZM3.125 7.84304V9.38459H12.5V7.84304H3.125ZM16.4062 9.38459V10.9261C15.0781 11.1574 14.0625 12.2365 14.0625 13.6239C14.0625 15.1654 15.2344 16.3216 16.7969 16.3216H17.5781C18.2031 16.3216 18.75 16.8611 18.75 17.4778C18.75 18.0944 18.2031 18.6339 17.5781 18.6339H14.8438V20.1755H16.4062V21.717H17.9688V20.1755C19.2969 19.9443 20.3125 18.8652 20.3125 17.4778C20.3125 15.9362 19.1406 14.78 17.5781 14.78H16.7969C16.1719 14.78 15.625 14.2405 15.625 13.6239C15.625 13.0072 16.1719 12.4677 16.7969 12.4677H19.5312V10.9261H17.9688V9.38459H16.4062ZM3.125 11.6969V13.2385H8.59375V11.6969H3.125ZM10.1562 11.6969V13.2385H12.5V11.6969H10.1562ZM3.125 14.78V16.3216H8.59375V14.78H3.125ZM10.1562 14.78V16.3216H12.5V14.78H10.1562Z" fill="#333333"/>
</svg>
