<svg width="20" height="20" viewBox="0 0 20 20" fill="none" xmlns="http://www.w3.org/2000/svg">
<path d="M18 4.6665H15V2.6665C15 1.5635 14.103 0.666504 13 0.666504H7C5.897 0.666504 5 1.5635 5 2.6665V4.6665H2C0.897 4.6665 0 5.5635 0 6.6665V17.6665C0 18.7695 0.897 19.6665 2 19.6665H18C19.103 19.6665 20 18.7695 20 17.6665V6.6665C20 5.5635 19.103 4.6665 18 4.6665ZM13 2.6665V4.6665H7V2.6665H13ZM2 6.6665H18V10.6665H15V8.6665H13V10.6665H7V8.6665H5V10.6665H2V6.6665ZM2 17.6665V12.6665H5V14.6665H7V12.6665H13V14.6665H15V12.6665H18.001V17.6665H2Z" fill="white"/>
</svg>
