<svg width="31" height="26" viewBox="0 0 31 26" fill="none" xmlns="http://www.w3.org/2000/svg">
<path d="M29.1499 0.226562C29.4799 0.226562 29.7749 0.347991 30.0349 0.590848C30.2749 0.823991 30.3949 1.10571 30.3949 1.43599V24.5171C30.3949 24.8474 30.2749 25.1291 30.0349 25.3623C29.7749 25.6051 29.4799 25.7266 29.1499 25.7266H9.13994C8.80994 25.7266 8.51494 25.6051 8.25494 25.3623C8.01494 25.1291 7.89494 24.8474 7.89494 24.5171V20.2623H1.63994C1.30994 20.2623 1.01494 20.1457 0.754943 19.9126C0.514943 19.66 0.394943 19.3734 0.394943 19.0528V6.90028C0.394943 6.57971 0.514943 6.29313 0.754943 6.04056C1.01494 5.80742 1.30994 5.69085 1.63994 5.69085H7.89494V1.43599C7.89494 1.10571 8.01494 0.823991 8.25494 0.590848C8.51494 0.347991 8.80994 0.226562 9.13994 0.226562H29.1499ZM7.89494 14.5211L9.66494 17.756H12.3499L9.39494 13.064L12.2899 8.44485H9.72494L8.08994 11.3737L8.02994 11.4611L7.98494 11.5631C7.72494 11.0483 7.44494 10.5286 7.14494 10.004C6.89494 9.48913 6.62994 8.96942 6.34994 8.44485H3.63494L6.46994 13.0931L3.39494 17.756H6.06494L7.89494 14.5211ZM18.2149 23.9051V20.2623H9.76994V23.9051H18.2149ZM18.2149 18.4408V13.8946H15.3949V18.4408H18.2149ZM18.2149 12.0731V7.51228H15.3949V12.0731H18.2149ZM18.2149 5.69085V2.04799H9.76994V5.69085H18.2149ZM28.5199 23.9051V20.2623H20.0899V23.9051H28.5199ZM28.5199 18.4408V13.8946H20.0899V18.4408H28.5199ZM28.5199 12.0731V7.51228H20.0899V12.0731H28.5199ZM28.5199 5.69085V2.04799H20.0899V5.69085H28.5199Z" fill="white"/>
</svg>
